<svg id="SvgjsSvg1001" width="288" height="288" xmlns="http://www.w3.org/2000/svg" version="1.1" xmlns:xlink="http://www.w3.org/1999/xlink" xmlns:svgjs="http://svgjs.com/svgjs"><defs id="SvgjsDefs1002"></defs><g id="SvgjsG1008"><svg xmlns="http://www.w3.org/2000/svg" viewBox="0 0 321 321" width="288" height="288"><path fill="#ffffff" d="M0 0 C1.45937949 -0.00599089 2.91875583 -0.01279772 4.37812805 -0.02035522 C8.32882357 -0.03796867 12.27943235 -0.04270872 16.23016334 -0.0439868 C18.70358469 -0.04541197 21.17698424 -0.04968856 23.65040016 -0.05498123 C32.29429133 -0.07346841 40.93812096 -0.08165378 49.58203125 -0.08007812 C57.6146655 -0.07887813 65.64703044 -0.09995579 73.6795966 -0.13156545 C80.59537975 -0.15780166 87.51107536 -0.1684423 94.42690784 -0.16716731 C98.54871113 -0.16665969 102.6702751 -0.17223092 106.79202843 -0.19352341 C110.67375657 -0.21302935 114.55502019 -0.212947 118.43676567 -0.19849014 C119.85240109 -0.19641592 121.26806653 -0.20101919 122.68365097 -0.21321106 C137.98508679 -0.33634133 149.2269733 3.50860339 160.4699707 14.01318359 C167.72420935 21.84109928 171.86189735 32.31742057 171.89364624 42.93595886 C171.90644119 44.88067078 171.90644119 44.88067078 171.91949463 46.8646698 C171.91879573 48.28421033 171.91787274 49.70375076 171.91674805 51.12329102 C171.92273851 52.63193085 171.92954524 54.14056764 171.93710327 55.64920044 C171.95472088 59.73418862 171.95945694 63.81909293 171.96073484 67.90411544 C171.96215976 70.46129135 171.96643587 73.01844618 171.97172928 75.57561684 C171.99021773 84.51128103 171.99840165 93.44688568 171.99682617 102.38256836 C171.9956261 110.68785677 172.01670508 118.99288476 172.0483135 127.29810733 C172.07454478 134.44743378 172.08519056 141.59667555 172.08391535 148.7460497 C172.0834076 153.0075782 172.08898659 157.26887526 172.11027145 161.53035545 C172.12976902 165.5434029 172.12970058 169.55600093 172.11523819 173.56906509 C172.11316296 175.033077 172.11777339 176.49711789 172.12995911 177.96108055 C172.25036858 193.44280817 168.54481633 204.74500095 157.90356445 216.13427734 C147.2699298 225.9886149 135.12211916 227.59242187 121.25244141 227.58105469 C119.79306191 227.58704558 118.33368558 227.59385241 116.87431335 227.60140991 C112.92361784 227.61902335 108.97300906 227.62376341 105.02227807 227.62504148 C102.54885672 227.62646666 100.07545716 227.63074324 97.60204124 227.63603592 C88.95815007 227.6545231 80.31432044 227.66270846 71.67041016 227.66113281 C63.63777591 227.65993282 55.60541096 227.68101048 47.5728448 227.71262014 C40.65706166 227.73885634 33.74136604 227.74949699 26.82553357 227.74822199 C22.70373027 227.74771437 18.5821663 227.75328561 14.46041298 227.77457809 C10.57868484 227.79408403 6.69742122 227.79400169 2.81567574 227.77954483 C1.40004032 227.7774706 -0.01562513 227.78207388 -1.43120956 227.79426575 C-16.73264539 227.91739602 -27.97453189 224.0724513 -39.2175293 213.56787109 C-46.47176794 205.73995541 -50.60945594 195.26363412 -50.64120483 184.64509583 C-50.6497348 183.34862122 -50.65826477 182.05214661 -50.66705322 180.71638489 C-50.66635433 179.29684436 -50.66543133 177.87730393 -50.66430664 176.45776367 C-50.6702971 174.94912383 -50.67710384 173.44048705 -50.68466187 171.93185425 C-50.70227947 167.84686606 -50.70701554 163.76196176 -50.70829344 159.67693925 C-50.70971835 157.11976333 -50.71399446 154.56260851 -50.71928787 152.00543785 C-50.73777632 143.06977366 -50.74596024 134.13416901 -50.74438477 125.19848633 C-50.74318469 116.89319791 -50.76426368 108.58816993 -50.79587209 100.28294736 C-50.82210337 93.13362091 -50.83274915 85.98437914 -50.83147395 78.83500499 C-50.83096619 74.57347649 -50.83654518 70.31217943 -50.85783005 66.05069923 C-50.87732761 62.03765179 -50.87725917 58.02505376 -50.86279678 54.01198959 C-50.86072155 52.54797769 -50.86533198 51.0839368 -50.8775177 49.61997414 C-50.99792717 34.13824652 -47.29237493 22.83605373 -36.65112305 11.44677734 C-26.01748839 1.59243979 -13.86967775 -0.01136718 0 0 Z M-23.3737793 29.29052734 C-29.28206677 36.25927668 -29.67307535 44.28108787 -29.60083008 53.01123047 C-29.60112213 53.94874146 -29.60141418 54.88625244 -29.60171509 55.85217285 C-29.60033095 58.92547123 -29.58481306 61.99852175 -29.5690918 65.07177734 C-29.56535841 67.21268583 -29.56251298 69.35359603 -29.56051636 71.49450684 C-29.55290556 77.11031875 -29.53327907 82.72602608 -29.5111084 88.34179688 C-29.49059486 94.07990098 -29.48150288 99.81802209 -29.47143555 105.55615234 C-29.45003071 116.80098979 -29.41592571 128.04574984 -29.3737793 139.29052734 C-19.95958965 139.45290263 -10.54588379 139.57718827 -1.13059807 139.65321255 C3.24164503 139.68970584 7.61292841 139.73918142 11.98461914 139.81860352 C16.20573185 139.89480782 20.42592314 139.936547 24.64767075 139.95466805 C26.25610738 139.96757678 27.86449499 139.99278642 29.47253799 140.03063774 C38.06170625 140.5615113 38.06170625 140.5615113 45.8414917 137.75588989 C47.43743672 135.94742087 47.43743672 135.94742087 48.50509644 133.99305725 C49.93030594 131.82874606 51.23336186 131.22071556 53.6262207 130.29052734 C59.46630309 129.6416293 64.82911156 129.43926512 70.1887207 131.97802734 C77.41959227 138.83808499 77.41959227 138.83808499 77.86450195 144.11865234 C78.11269252 155.56154354 78.11269252 155.56154354 73.6262207 160.29052734 C67.920491 165.31700351 64.34393797 165.63802375 56.83325195 165.57177734 C52.71699551 165.21079018 50.61594866 164.12693592 47.6262207 161.29052734 C47.06352478 160.42953934 46.50082886 159.56855133 45.92108154 158.68147278 C43.78764212 155.9932375 43.78764212 155.9932375 40.37384033 155.68925476 C39.08588562 155.70035782 37.79793091 155.71146088 36.47094727 155.72290039 C35.75835251 155.72217026 35.04575775 155.72144012 34.31156921 155.72068787 C31.96254628 155.7241639 29.61552095 155.7630207 27.2668457 155.80224609 C25.63589562 155.81157429 24.00493151 155.81869037 22.3739624 155.82368469 C18.08609172 155.84275432 13.79907102 155.89185389 9.51153564 155.94720459 C5.13451638 155.99839839 0.75735945 156.02119895 -3.61987305 156.04638672 C-12.20489807 156.09997351 -20.78923288 156.18528479 -29.3737793 156.29052734 C-29.43226412 160.62380318 -29.46753845 164.9569762 -29.4987793 169.29052734 C-29.51553711 170.51126953 -29.53229492 171.73201172 -29.54956055 172.98974609 C-29.60817013 183.83251848 -28.42718009 191.73532591 -21.3737793 200.29052734 C-13.44445672 207.01321387 -4.06191597 206.58201515 5.80004883 206.54931641 C7.10509872 206.55282104 8.41014862 206.55632568 9.75474548 206.55993652 C13.31465097 206.56900876 16.87443978 206.56553773 20.43434715 206.55917835 C24.17152582 206.55409148 27.90869494 206.55881724 31.64587402 206.56195068 C37.92010276 206.56558252 44.1942843 206.5608118 50.46850586 206.55126953 C57.70761856 206.54038648 64.94661858 206.54391261 72.18572855 206.55492234 C78.41697096 206.56401754 84.64817957 206.5652696 90.87942648 206.560045 C94.59412068 206.55693756 98.30876202 206.5564821 102.02345276 206.56311798 C106.16649986 206.57000298 110.3093547 206.5604423 114.45239258 206.54931641 C116.28392128 206.5553891 116.28392128 206.5553891 118.15245056 206.56158447 C128.61576542 206.50960968 136.3788692 205.09011892 144.6262207 198.29052734 C150.51080563 191.34973486 150.92603274 183.35949493 150.85327148 174.66162109 C150.85356354 173.73386368 150.85385559 172.80610626 150.85415649 171.85023499 C150.85277253 168.80940115 150.83725551 165.76881793 150.8215332 162.72802734 C150.81779975 160.60953912 150.81495435 158.49104916 150.81295776 156.37255859 C150.80534747 150.81592991 150.78572142 145.25940695 150.7635498 139.70281982 C150.74303517 134.02503896 150.73394406 128.34724089 150.72387695 122.66943359 C150.70247301 111.54308524 150.66836863 100.41681511 150.6262207 89.29052734 C141.08164445 89.12816025 131.53754524 89.00387042 121.99188805 88.92784214 C117.55911776 88.89134716 113.12729392 88.84186818 108.69506836 88.76245117 C104.41560226 88.68625336 100.1370449 88.64450895 95.85695267 88.62638664 C94.22618937 88.61347679 92.59547448 88.58826501 90.96509933 88.55041695 C82.27632749 88.01167483 82.27632749 88.01167483 74.39752197 90.82516479 C72.80080408 92.63272089 72.80080408 92.63272089 71.73965454 94.58799744 C70.32110077 96.75708027 69.01914407 97.36070152 66.6262207 98.29052734 C60.78613832 98.93942539 55.42332985 99.14178957 50.0637207 96.60302734 C42.83284913 89.7429697 42.83284913 89.7429697 42.38793945 84.46240234 C42.13974889 73.01951115 42.13974889 73.01951115 46.6262207 68.29052734 C52.3319504 63.26405118 55.90850344 62.94303094 63.41918945 63.00927734 C67.5354459 63.37026451 69.63649275 64.45411877 72.6262207 67.29052734 C73.46742462 68.58200935 73.46742462 68.58200935 74.32562256 69.89958191 C76.46875214 72.59282676 76.46875214 72.59282676 79.91656494 72.89179993 C81.22228455 72.88069687 82.52800415 72.86959381 83.87329102 72.8581543 C84.59563934 72.85888443 85.31798767 72.85961456 86.06222534 72.86036682 C88.44370299 72.85689044 90.82321094 72.81803161 93.2043457 72.77880859 C94.85771618 72.76948053 96.5111005 72.76236438 98.16448975 72.75737 C102.51153875 72.73829935 106.85774948 72.6891988 111.20446777 72.6338501 C115.64181173 72.58265855 120.07929143 72.55985621 124.5168457 72.53466797 C133.22035496 72.48107937 141.92318349 72.39576676 150.6262207 72.29052734 C150.68467322 67.79058262 150.71996925 63.29073671 150.7512207 58.79052734 C150.77635742 56.88787109 150.77635742 56.88787109 150.80200195 54.94677734 C150.85925267 43.95463973 149.78060721 35.96821624 142.6262207 27.29052734 C134.69689813 20.56784081 125.31435738 20.99903954 115.45239258 21.03173828 C114.14734268 21.02823364 112.84229279 21.024729 111.49769592 21.02111816 C107.93779043 21.01204593 104.37800163 21.01551696 100.81809425 21.02187634 C97.08091559 21.0269632 93.34374647 21.02223744 89.60656738 21.019104 C83.33233865 21.01547216 77.0581571 21.02024289 70.78393555 21.02978516 C63.54482285 21.04066821 56.30582283 21.03714208 49.06671286 21.02613235 C42.83547045 21.01703714 36.60426183 21.01578509 30.37301493 21.02100968 C26.65832073 21.02411713 22.94367938 21.02457259 19.22898865 21.01793671 C15.08594155 21.01105171 10.94308671 21.02061238 6.80004883 21.03173828 C4.96852013 21.02566559 4.96852013 21.02566559 3.09999084 21.01947021 C-7.36332402 21.07144501 -15.12642779 22.49093577 -23.3737793 29.29052734 Z " transform="translate(99.374 45.71)" class="svgShape color8449e5-0 selectable"></path><path fill="#281145" d="M0 0 C0.71274078 -0.00014603 1.42548157 -0.00029205 2.15982056 -0.0004425 C4.50265607 0.00025108 6.84541089 0.00801739 9.18823242 0.01586914 C10.81776384 0.01773529 12.44729582 0.01915826 14.076828 0.02015686 C18.35608481 0.02396651 22.63530744 0.03378351 26.91455078 0.04486084 C31.28507017 0.05510837 35.6555951 0.05966163 40.02612305 0.06469727 C48.59449982 0.07540721 57.1628423 0.0929914 65.73120117 0.11352539 C65.73120117 6.05352539 65.73120117 11.99352539 65.73120117 18.11352539 C63.64324219 18.12287109 61.5552832 18.1322168 59.40405273 18.1418457 C52.462925 18.1757922 45.52208906 18.23143766 38.58119583 18.29742813 C34.37776503 18.33673912 30.17453859 18.36900704 25.97094727 18.38452148 C21.90524348 18.39979714 17.84010214 18.43443205 13.77465057 18.48183441 C12.23277458 18.49653685 10.69081823 18.50455992 9.14887238 18.50540924 C-6.88532288 18.52310394 -19.94112715 22.48554854 -32.26879883 33.11352539 C-40.29737736 42.35855521 -46.28536647 53.48797046 -46.47412109 65.8918457 C-46.49406631 67.05274719 -46.51401154 68.21364868 -46.53456116 69.409729 C-46.55127365 70.65776306 -46.56798615 71.90579712 -46.58520508 73.19165039 C-46.60598618 74.47336121 -46.62676727 75.75507202 -46.6481781 77.07562256 C-46.7032463 80.47528811 -46.75272246 83.87501277 -46.80102539 87.27478027 C-46.85135215 90.74712353 -46.90697975 94.21938144 -46.9621582 97.69165039 C-47.06955307 104.49886955 -47.17054896 111.30616816 -47.26879883 118.11352539 C-53.20879883 118.11352539 -59.14879883 118.11352539 -65.26879883 118.11352539 C-65.35984289 110.53235618 -65.4329378 102.95139632 -65.47604752 95.3698101 C-65.49675765 91.84781149 -65.52476313 88.32621223 -65.57055664 84.80444336 C-65.62308821 80.7381651 -65.64188053 76.67229388 -65.65942383 72.60571289 C-65.68006897 71.36554413 -65.70071411 70.12537537 -65.72198486 68.84762573 C-65.72630311 51.69337356 -59.60432565 35.96824653 -48.26879883 23.11352539 C-47.61266602 22.36329102 -46.9565332 21.61305664 -46.28051758 20.84008789 C-34.38470394 8.09612666 -17.51087004 -0.0302433 0 0 Z " transform="translate(65.269 -.114)" class="svgShape color281145-1 selectable"></path><path fill="#ffffff" d="M0 0 C9.27615993 -0.09326387 18.55215494 -0.16404781 27.82868385 -0.20724869 C32.13758702 -0.22799783 36.44616609 -0.2560791 40.75488281 -0.30175781 C44.92409764 -0.34567383 49.09300356 -0.369232 53.2624321 -0.37950897 C54.84182972 -0.38681927 56.42121316 -0.40109076 58.00047684 -0.42292023 C77.61595021 -0.68292141 94.10483444 4.79746689 109 18 C109.61359375 18.51949219 110.2271875 19.03898437 110.859375 19.57421875 C122.029494 29.74517573 128.50853402 44.30069526 131 59 C131.08436115 60.99312193 131.11779713 62.98874068 131.11352539 64.98364258 C131.11344986 66.16448929 131.11337433 67.345336 131.11329651 68.56196594 C131.10813522 69.82671249 131.10297394 71.09145905 131.09765625 72.39453125 C131.09553383 74.34826912 131.09553383 74.34826912 131.09336853 76.34147644 C131.08956355 79.79216454 131.07975064 83.24281008 131.06866455 86.69348145 C131.05840689 90.21947657 131.0538616 93.74547861 131.04882812 97.27148438 C131.03812644 104.18100876 131.02054612 111.09049795 131 118 C125.06 118 119.12 118 113 118 C112.9906543 116.34137939 112.98130859 114.68275879 112.97167969 112.97387695 C112.93589636 107.44167864 112.88193978 101.90984842 112.81609726 96.37792683 C112.77689112 93.0297743 112.74667344 89.68211604 112.72900391 86.33374023 C112.70738842 82.46817011 112.66064082 78.60355872 112.609375 74.73828125 C112.60814636 73.55857254 112.60691772 72.37886383 112.60565186 71.16340637 C112.34132147 55.87888654 107.1949299 43.53698606 96.9375 32.25 C88.15279983 23.85707033 75.89248032 18.79881084 63.79541016 18.69702148 C63.11324432 18.68858215 62.43107849 18.68014282 61.72824097 18.67144775 C59.49850691 18.64588662 57.26890448 18.63358523 55.0390625 18.62109375 C53.48203503 18.60490411 51.92501759 18.58772259 50.36801147 18.56959534 C46.28815327 18.52409769 42.20828149 18.48918333 38.1282959 18.45739746 C31.57710322 18.40532527 25.02605654 18.34052019 18.47504807 18.26918221 C16.18549685 18.2463079 13.89596458 18.2300714 11.60635376 18.21446228 C10.21364118 18.20106395 8.82093066 18.18744988 7.42822266 18.17358398 C6.20801422 18.16407211 4.98780579 18.15456024 3.73062134 18.14476013 C1 18 1 18 0 17 C-0.07325168 14.13732433 -0.09238205 11.299281 -0.0625 8.4375 C-0.05798828 7.63119141 -0.05347656 6.82488281 -0.04882812 5.99414062 C-0.03700518 3.99606244 -0.01906914 1.99802217 0 0 Z " transform="translate(190)" class="svgShape color844ae5-2 selectable"></path><path fill="#1B004A" d="M0 0 C5.94 0 11.88 0 18 0 C18.10002111 6.13398665 18.17200492 12.26748273 18.21972656 18.40209961 C18.23965241 20.48226202 18.2668032 22.56236984 18.30175781 24.64233398 C18.66613776 46.90702035 15.15370011 66.24636503 -0.7253418 82.92114258 C-14.48679286 96.67788485 -31.67255125 104.2808227 -51.12523365 104.34801483 C-53.3909616 104.33969165 -55.65625984 104.3166325 -57.921875 104.29296875 C-59.51897784 104.28735946 -61.11608591 104.28309568 -62.7131958 104.28010559 C-66.87576051 104.26876151 -71.03800105 104.23938702 -75.20043945 104.20599365 C-79.46431089 104.17506497 -83.72823574 104.16155201 -87.9921875 104.14648438 C-96.32828887 104.11450491 -104.66406651 104.06182516 -113 104 C-113 98.06 -113 92.12 -113 86 C-110.9475708 85.9906543 -108.8951416 85.98130859 -106.78051758 85.97167969 C-99.9511533 85.93770597 -93.12208473 85.88204607 -86.29295826 85.81609726 C-82.15793734 85.77681607 -78.0231232 85.74453386 -73.88793945 85.72900391 C-69.88706623 85.7137082 -65.88676228 85.6790393 -61.88614464 85.63169098 C-60.3702156 85.61700878 -58.85420523 85.60896667 -57.33820534 85.60811615 C-40.79859959 85.58952827 -27.14851663 81.75911516 -14.75 70.3125 C-1.08034976 55.77270776 -0.52642293 39.63617856 -0.3125 20.8125 C-0.27927554 18.79099417 -0.24478127 16.76950879 -0.20898438 14.74804688 C-0.12466884 9.832145 -0.05758413 4.91628469 0 0 Z " transform="translate(303 217)" class="svgShape color1b004a-3 selectable"></path><path fill="#ffffff" d="M0 0 C5.94 0 11.88 0 18 0 C18.01401855 1.90507324 18.01401855 1.90507324 18.02832031 3.84863281 C18.06853979 8.61264649 18.13438398 13.37603587 18.20751953 18.13964844 C18.23554529 20.19164948 18.25685019 22.24375478 18.27099609 24.29589844 C18.40574603 42.74765615 20.51164271 57.07064609 33.5 71.1875 C45.93427825 83.11464002 60.53706663 85.28789406 77.09375 85.4140625 C78.65174356 85.43279733 80.20972722 85.45237243 81.7677002 85.4727478 C85.8446262 85.52383073 89.92158501 85.56358313 93.99865723 85.60089111 C98.1684566 85.64108122 102.33812229 85.69210469 106.5078125 85.7421875 C114.67178992 85.83866415 122.83582364 85.92215553 131 86 C131 91.94 131 97.88 131 104 C121.87144149 104.09094629 112.74319172 104.16408408 103.61427975 104.20724869 C99.37378326 104.22798219 95.13361704 104.25603356 90.89331055 104.30175781 C86.78892917 104.3457313 82.6848622 104.36924364 78.58026314 104.37950897 C77.02681095 104.38680925 75.47337282 104.40105995 73.9200573 104.42292023 C53.91842919 104.6928027 35.83984914 99.29091645 21.08105469 85.28125 C7.02879408 71.25788369 -0.31157912 54.32294526 -0.390625 34.5703125 C-0.37861174 30.42103464 -0.31783287 26.27368363 -0.25 22.125 C-0.22989389 19.97267297 -0.21165043 17.82032769 -0.1953125 15.66796875 C-0.15166716 10.44485427 -0.08286859 5.22263338 0 0 Z " transform="translate(0 217)" class="svgShape color8449e5-4 selectable"></path></svg></g></svg>